<svg width="1180" height="1212" viewBox="0 0 1180 1212" fill="none" xmlns="http://www.w3.org/2000/svg">
<path d="M822.957 183.808C812.887 177.221 787.057 166.19 775.697 161.878C750.607 148.32 717.597 146.027 692.417 132.812C690.217 131.657 687.227 126.081 686.497 123.73C676.327 91.0777 662.697 59.5647 652.287 27.1817C651.477 24.6537 652.337 23.9417 653.627 22.2227C669.457 15.8477 766.877 42.7207 787.417 50.4917C805.087 57.1717 829.777 68.2407 849.257 75.0297L888.952 95.8337C897.922 103.637 914.132 111.703 924.472 118.754C1062.79 213.075 1159.53 373.266 1176.12 540.389C1191.58 693.757 1145.28 846.964 1047.48 966.104C949.617 1085.2 818.787 1160.74 665.277 1180.77C661.067 1181.32 656.357 1181.7 652.927 1179.18C651.567 1175.27 651.977 1171.23 653.477 1167.42C660.327 1150.04 668.787 1133.43 675.317 1115.8C680.697 1101.29 683.237 1085.66 689.027 1071.5C691.197 1066.21 697.467 1063.22 702.727 1061.57C724.217 1054.86 745.997 1048.99 766.967 1040.63C874.437 997.814 965.587 918.474 1018.37 814.644C1075 703.15 1085.44 573.833 1047.42 454.698C1015.11 354.8 950.537 268.457 863.847 209.219C852.887 201.736 834.957 189.061 822.957 183.808ZM714.517 77.6297C706.557 79.7827 701.747 87.8797 703.667 95.9037C705.587 103.928 713.547 108.968 721.617 107.28C727.057 106.143 731.447 102.142 733.077 96.8327C734.707 91.5237 733.327 85.7477 729.467 81.7547C725.607 77.7607 719.887 76.1807 714.517 77.6297ZM881.827 1017.22C873.697 1018.71 868.237 1026.4 869.517 1034.56C870.787 1042.72 878.327 1048.38 886.517 1047.32C892.007 1046.62 896.687 1042.98 898.727 1037.83C900.777 1032.68 899.867 1026.83 896.347 1022.55C892.837 1018.26 887.277 1016.23 881.827 1017.22ZM905.747 169.868C897.507 172.013 892.557 180.422 894.687 188.665C896.817 196.907 905.217 201.872 913.467 199.762C921.737 197.645 926.717 189.215 924.587 180.948C922.447 172.68 914.007 167.716 905.747 169.868ZM1057.05 348.74C1049.2 351.261 1044.78 359.576 1047.09 367.494C1049.39 375.413 1057.58 380.056 1065.56 377.967C1070.92 376.564 1075.09 372.362 1076.46 366.994C1077.83 361.627 1076.17 355.94 1072.14 352.146C1068.1 348.351 1062.32 347.047 1057.05 348.74ZM726.937 1087.86C721.667 1089.16 717.497 1093.2 716.027 1098.43C714.557 1103.66 716.017 1109.28 719.847 1113.13C723.677 1116.99 729.287 1118.48 734.527 1117.05C742.487 1114.87 747.217 1106.7 745.147 1098.71C743.067 1090.72 734.947 1085.89 726.937 1087.86ZM1122.56 646.276C1130.45 643.198 1134.33 634.284 1131.21 626.411C1128.08 618.537 1119.15 614.711 1111.29 617.884C1103.5 621.03 1099.72 629.875 1102.82 637.681C1105.92 645.488 1114.74 649.328 1122.56 646.276ZM1027.82 909.814C1035.96 906.904 1040.22 897.974 1037.36 889.814C1034.51 881.654 1025.6 877.324 1017.42 880.124C1009.16 882.954 1004.78 891.964 1007.67 900.204C1010.55 908.454 1019.6 912.764 1027.82 909.814Z" fill="white"/>
<path d="M318.54 660.989C324.364 660.607 356.971 676.41 366.791 679.841C415.204 697.066 465.627 706.229 516.862 709.078C536.732 710.184 552.092 696.786 564.082 714.688L566.282 922.254C566.772 960.194 568.162 998.344 567.012 1036.26C566.912 1039.58 566.872 1047.47 564.142 1048.9C556.702 1052.79 539.952 1050.04 532.162 1048.94C476.73 1043.02 394.998 1013.38 348.843 981.494C348.004 959.334 349.458 933.864 348.453 914.304C346.277 890.594 355.958 870.184 322.414 877.854C306.711 881.444 309.795 831.614 311.065 822.864C318.787 814.734 335.195 822.534 345.876 815.234C351.621 807.394 349.04 751.907 348.879 738.296C336.721 738.349 324.945 737.098 312.916 735.654C312.561 718.798 307.464 672.47 318.54 660.989ZM532.462 850.594C537.402 849.934 541.592 846.634 543.372 841.974C545.152 837.324 544.252 832.074 541.022 828.274C537.792 824.484 532.752 822.754 527.872 823.774C520.702 825.274 516.012 832.184 517.242 839.404C518.482 846.624 525.202 851.564 532.462 850.594ZM525.692 732.412C509.822 741.019 514.042 758.995 532.702 760.059C549.112 752.135 544.452 730.661 525.692 732.412ZM535.102 934.434C541.772 931.834 545.112 924.374 542.622 917.674C540.122 910.974 532.712 907.524 525.982 909.914C521.532 911.504 518.282 915.354 517.482 920.004C516.672 924.654 518.432 929.374 522.082 932.364C525.732 935.354 530.712 936.144 535.102 934.434ZM533.462 1019.4C540.242 1017.8 544.502 1011.06 543.032 1004.25C541.562 997.444 534.912 993.054 528.072 994.394C523.532 995.284 519.822 998.554 518.372 1002.95C516.922 1007.35 517.972 1012.18 521.102 1015.59C524.222 1019 528.952 1020.46 533.462 1019.4ZM345.078 715.903C349.151 714.251 352.02 710.536 352.591 706.179C353.161 701.821 351.344 697.493 347.834 694.849C344.324 692.204 339.662 691.651 335.631 693.401C329.502 696.062 326.653 703.158 329.239 709.319C331.826 715.48 338.886 718.415 345.078 715.903ZM344.488 858.724C348.521 857.434 351.532 854.054 352.341 849.894C353.151 845.744 351.63 841.474 348.374 838.764C345.119 836.064 340.647 835.344 336.709 836.904C330.895 839.194 327.948 845.684 330.047 851.574C332.145 857.464 338.534 860.624 344.488 858.724Z" fill="#FFD700"/>
<path d="M510.892 25.7257C515.662 25.4897 520.642 24.2737 523.902 28.0977C523.272 32.4957 515.582 51.9997 513.692 57.5847C504.102 85.8677 493.442 113.328 482.143 140.969C464.216 145.838 450.291 148.577 432.181 154.843C339.226 186.764 258.202 246.248 199.902 325.373C187.057 342.635 176.727 359.505 166.892 378.583C164.242 383.725 161.505 388.262 156.862 391.838C147.472 393.902 111.42 375.343 100.034 370.274C91.2089 366.349 67.2159 356.946 62.5199 350.075C60.9659 333.525 117.228 256.13 129.191 240.8C218.556 126.287 366.064 42.4427 510.892 25.7257ZM444.487 114.177C452.561 112.221 457.536 104.108 455.616 96.0257C453.697 87.9427 445.605 82.9327 437.515 84.8167C429.373 86.7117 424.325 94.8647 426.256 102.998C428.188 111.131 436.363 116.144 444.487 114.177ZM272.445 202.519C277.683 201.163 281.769 197.066 283.111 191.824C284.452 186.582 282.838 181.026 278.896 177.32C274.953 173.613 269.308 172.344 264.159 174.006C256.515 176.474 252.218 184.572 254.459 192.286C256.701 199.999 264.669 204.533 272.445 202.519ZM139.998 344.579C148.287 340.583 154.542 331.884 150.132 322.701C148.427 319.212 145.259 316.662 141.487 315.741C139.44 315.238 136.285 315.076 134.173 315.17C116.793 323.978 120.808 342.001 139.998 344.579Z" fill="#FFD700"/>
<path d="M281.763 407.4C276.926 406.75 270.694 406.535 267.098 402.801C263.249 398.805 263.836 390.059 264.469 384.928C264.911 381.343 266.167 375.403 269.486 373.266C276.337 368.854 444.051 369.301 459.852 372.085C469.026 382.27 485.843 415.181 493.172 428.496C511.602 461.54 529.842 494.692 547.892 527.949L581.312 588.505C587.622 599.852 597.262 615.718 601.942 627.247C597.072 637.544 575.222 685.723 567.002 689.443C563.252 691.137 558.002 690.702 554.062 690.11C550.472 686.433 552.342 681.765 554.172 677.349C560.172 662.888 568.522 649.212 575.232 635.117C551.842 634.856 528.452 634.776 505.062 634.878C514.022 650.738 529.292 674.104 536.722 689.239C526.152 690.983 509.522 695.419 500.062 689.2C487.907 681.199 390.038 499.68 376.332 474.256C365.62 454.388 352.232 424.214 339.562 407.177C326.732 406.424 314.43 406.575 301.589 406.637L301.187 489.402C301.147 498.616 300.378 518.387 300.994 526.738C297.476 529.196 286.441 527.352 282.012 526.835C281.641 487.024 281.558 447.212 281.763 407.4ZM441.492 478.161C448.401 466.012 455.726 453.554 461.902 441.066C442.9 440.653 416.59 440.105 397.756 441.129C400.102 449.053 424.429 493.488 429.511 496.701C433.532 492.8 438.47 483.396 441.492 478.161ZM483.711 596.873C487.301 590.251 491.082 582.916 494.872 576.471C502.412 563.82 509.642 551.861 516.372 538.769C497.632 538.303 469.666 537.808 451.157 538.633C458.4 552.348 475.367 585.028 483.711 596.873ZM383.396 406.727L380.614 407.964C380.185 411.372 381.296 413.855 382.298 417.183C388.901 423.714 434.755 421.053 447.222 421.339L449.411 420.692C449.664 417.058 444.123 409.904 441.772 406.468L383.396 406.727ZM472.798 463.563C461.839 481.532 452.147 500.415 441.464 518.661L476.472 518.706L506.382 518.686C501.752 511.073 477.199 464.932 472.798 463.563ZM526.332 560.639C518.052 575.425 502.532 600.152 495.762 613.963C507.002 614.422 518.262 614.629 529.512 614.586L558.282 614.722C553.262 605.186 532.852 564.239 526.332 560.639Z" fill="white"/>
<path d="M874.412 311.736C883.962 314.207 924.182 365.794 925.462 374.499C932.112 419.798 927.342 470.879 925.882 516.633C925.332 533.719 927.332 610.039 922.802 619.942C915.292 618.999 887.312 597.489 881.242 591.362C880.592 586.32 879.062 580.809 877.902 575.81C871.982 550.482 866.622 524.783 860.702 499.477C858.392 489.605 852.862 462.794 847.052 455.865C844.832 455.242 843.172 455.503 841.002 456.123C825.892 460.426 726.782 532.737 717.182 544.142C702.872 561.142 692.842 584.864 682.492 604.559C668.772 632.182 651.032 662.633 636.212 689.825C629.592 701.971 617.582 724.816 610.242 735.617C604.262 729.755 589.392 711.497 591.602 704.494C595.542 691.971 610.652 667.542 617.002 655.921C641.292 610.973 666.012 566.26 691.162 521.787C705.052 496.697 722.352 461.928 738.782 438.323C742.072 433.588 761.922 424.289 768.052 421.083C791.602 408.761 825.892 393.04 844.842 374.722C856.632 363.327 862.352 323.798 874.412 311.736ZM877.432 418.256C886.222 416.577 891.982 408.099 890.302 399.316C888.632 390.532 880.162 384.765 871.372 386.431C862.582 388.098 856.802 396.582 858.482 405.375C860.152 414.169 868.642 419.937 877.432 418.256Z" fill="#FFD700"/>
<path d="M113.043 721.525C117.115 721.181 124.562 720.582 126.036 725.866C146.673 799.864 182.881 869.784 236.496 925.284C249.543 938.794 268.443 953.014 278.441 968.284C273.053 976.964 256.782 994.714 249.198 1003.57C236.766 1018.11 222.828 1035.92 209.774 1049.5L197.356 1039.24C191.403 1034.17 185.508 1029.05 179.673 1023.85C118.585 968.864 61.193 874.034 33.733 796.774C27.78 780.034 21.824 762.439 20.854 744.692C43.501 736.197 87.968 727.135 113.043 721.525ZM88.968 772.571C97.857 767.513 104.519 758.154 98.836 748.023C97.119 745.006 94.314 742.76 90.995 741.745C88.185 740.913 84.807 741.243 81.938 741.572C62.384 751.839 70.484 773.874 88.968 772.571Z" fill="#FFD700"/>
<path d="M51.956 371.043C61.912 372.797 134.76 408.509 146.987 415.868C143.482 429.04 134.982 448.028 130.609 462.591C117.497 506.258 109.083 555.892 109.68 601.408C109.748 615.773 110.496 630.127 111.922 644.422C113.164 656.102 118.473 690.882 116.959 700.324C111.807 705.072 94.747 708.233 87.222 710.064C78.362 713.752 24.238 726.232 15.342 724.203C7.79399 717.563 3.758 669.003 2.519 656.288C-4.659 582.586 3.67198 508.394 25.358 437.666C31.923 416.255 39.834 389.869 51.956 371.043Z" fill="#FFD700"/>
<path d="M199.046 642.046C200.111 617.446 197.143 580.314 199.481 558.276C213.449 571.514 230.595 592.575 241.963 608.435C242.422 624.879 241.458 643.078 254.225 655.37C265.597 666.32 283.054 670.861 296.052 678.344C300.589 700.866 294.822 725.213 301.42 745.044C315.457 747.961 323.741 747.184 337.076 748.502C337.844 757.746 341.705 795.924 336.81 802.924C330.423 812.064 297.287 797.944 297.986 820.234C298.336 831.374 296.01 875.114 299.708 882.344C308.221 890.524 325.789 881.584 333.689 888.614C339.479 901.294 335.763 928.764 336.987 943.264C337.609 950.654 339.215 964.314 332.864 968.764C324.687 969.544 313.512 959.324 306.766 954.264C270.08 926.704 238.773 892.194 214.002 853.634C206.27 841.594 197.937 830.554 196.185 816.344C192.667 794.454 202.999 737.514 186.972 722.754C184.972 719.754 184.194 719.941 179.972 713.254C172.94 698.068 175.44 688.094 178.029 672.254L182.972 662.254C182.972 662.254 192.809 649.442 198.372 642.831L199.046 642.046ZM310.399 788.154C323.521 784.534 322.761 762.573 304.924 764.381C290.741 771.676 293.339 786.804 310.399 788.154ZM313.274 927.374C319.244 924.734 321.933 917.744 319.272 911.784C316.61 905.834 309.612 903.174 303.664 905.854C297.753 908.524 295.113 915.474 297.758 921.394C300.404 927.324 307.34 929.994 313.274 927.374ZM202.478 699.308C208.543 697.615 212.139 691.38 210.566 685.282C208.994 679.184 202.831 675.466 196.703 676.917C192.63 677.882 189.396 680.973 188.248 684.999C187.1 689.024 188.217 693.356 191.169 696.324C194.121 699.292 198.446 700.434 202.478 699.308Z" fill="#FFD700"/>
<path d="M295.857 981.234C297.074 981.354 299.362 981.674 300.34 982.374C341.99 1012.19 386.312 1036.06 434.923 1052.5C451.552 1058.12 468.175 1061.12 484.014 1069.76C493.812 1090.55 497.942 1113.57 505.522 1135.27C509.022 1145.29 531.272 1175.09 522.202 1183.23C512.032 1185.89 477.723 1178.14 466.488 1176.03C395.561 1160.7 332.055 1135.12 271.208 1095.5C256.818 1086.14 237.511 1074.05 225.307 1062.11C245.425 1036.74 272.33 1001.75 295.857 981.234ZM444.467 1118.94C452.356 1117.54 457.695 1110.11 456.508 1102.19C455.321 1094.26 448.04 1088.72 440.086 1089.7C434.745 1090.35 430.18 1093.85 428.164 1098.84C426.149 1103.83 427.001 1109.52 430.39 1113.7C433.779 1117.87 439.169 1119.88 444.467 1118.94ZM297.385 1047.89C302.553 1046.96 306.827 1043.34 308.577 1038.39C310.328 1033.44 309.286 1027.93 305.848 1023.96C302.41 1019.99 297.106 1018.18 291.958 1019.2C284.108 1020.77 278.985 1028.37 280.473 1036.23C281.961 1044.1 289.506 1049.3 297.385 1047.89Z" fill="#FFD700"/>
<path d="M877.602 621.709C890.472 623.568 924.602 648.581 933.942 657.98C952.412 676.559 962.962 699.613 962.832 725.979C962.692 748.822 953.312 770.634 936.832 786.454C911.802 810.804 880.472 807.724 848.062 807.414C850.952 801.794 853.742 795.884 856.432 790.064C873.022 754.149 890.592 718.168 904.692 681.21C905.642 678.705 904.972 675.218 904.432 672.669C900.872 669.841 900.742 669.75 896.402 668.665C893.722 669.305 892.122 669.638 890.662 672.349C870.492 709.584 855.752 749.7 837.552 787.914C834.322 794.704 831.492 801.114 827.582 807.304C817.272 807.424 772.692 808.684 766.722 803.714C766.442 799.084 769.622 793.604 771.762 790.004C783.042 771.075 782.762 776.534 802.772 773.534C805.202 772.89 808.522 770.629 809.692 768.462C835.172 721.417 854.272 669.818 877.602 621.709Z" fill="white"/>
<path d="M607.552 817.494C610.532 817.074 611.552 816.764 613.262 813.874C627.812 789.234 642.622 763.859 656.522 738.906C682.922 691.997 708.992 644.91 734.752 597.649C745.562 577.622 758.152 552.389 770.292 533.442C776.112 524.348 809.232 506.073 820.282 501.682C813.272 525.119 784.562 575.572 771.632 599.058L685.312 754.435C667.992 786.254 650.422 817.954 632.632 849.514C628.602 856.674 614.522 882.654 610.092 887.524C598.162 876.014 583.292 849.534 583.892 832.824C584.492 816.204 584.132 799.294 584.272 782.644C592.582 793.594 600.292 805.834 607.552 817.494Z" fill="#FFD700"/>
<path d="M584.272 782.644C592.582 793.594 600.292 805.834 607.552 817.494C609.422 824.844 608.962 874.384 610.092 887.524C598.162 876.014 583.292 849.534 583.892 832.824C584.492 816.204 584.132 799.294 584.272 782.644Z" fill="white"/>
<path d="M179.389 792.494C153.435 745.862 141.415 676.964 138.026 623.93C133.459 552.455 150.826 480.031 177.299 413.968C178.075 434.966 172.414 451.926 173.722 472.371C174.74 488.274 182.831 507.242 185.149 523.407C190.021 557.381 189.174 598.666 188.067 633.106C187.689 644.866 182.338 644.572 175.972 652.254C173.258 655.529 169.972 660.754 167.472 668.254C163.472 685.754 165.045 704.058 172.472 720.254C174.54 724.344 178.528 729.146 180.472 733.254C188.403 750.017 185.539 775.594 179.389 792.494ZM169.169 624.452C173.101 622.952 173.374 622.973 175.679 619.651C177.052 612.278 171.872 608.518 165.149 607.386C164.359 607.256 163.566 607.141 162.772 607.041C150.603 613.705 155.099 624.782 169.169 624.452Z" fill="#FFD700"/>
<path d="M580.922 1085.49C594.802 1084.42 606.022 1086.31 617.022 1095.85C626.482 1104.15 632.132 1115.95 632.672 1128.52C633.502 1149.44 619.202 1162.37 606.212 1176.69C603.792 1188.84 607.552 1204.84 594.772 1211.34C574.142 1213.33 571.432 1210.9 570.452 1189.72C569.472 1168.57 547.212 1163.37 542.802 1142.18C536.862 1113.61 552.502 1090.99 580.922 1085.49ZM590.412 1152.14C598.362 1151.08 605.112 1145.82 608.092 1138.38C611.072 1130.94 609.812 1122.47 604.792 1116.22C599.782 1109.97 591.782 1106.91 583.872 1108.2C571.892 1110.17 563.712 1121.38 565.492 1133.39C567.282 1145.4 578.382 1153.75 590.412 1152.14Z" fill="white"/>
<path d="M582.102 0.352665C608.212 -2.60834 602.742 13.4987 603.172 32.8057C614.042 43.1507 627.202 48.7837 631.092 65.1967C638.022 94.3987 621.262 115.091 594.042 122.139C564.752 123.946 541.162 106.839 542.602 74.6627C543.492 54.9007 557.172 44.9997 571.372 33.4017C572.942 19.5397 567.292 6.97966 582.102 0.352665ZM593.432 99.2997C605.412 95.9097 612.372 83.4517 608.982 71.4747C605.592 59.4967 593.132 52.5347 581.152 55.9227C569.182 59.3127 562.212 71.7707 565.602 83.7497C568.992 95.7277 581.452 102.691 593.432 99.2997Z" fill="white"/>
<path d="M281.948 570.715C287.838 570.373 296.417 570.052 302.289 570.43C301.998 575.543 302.344 579.487 302.669 584.562C307.926 590.456 316.664 597.14 320.356 603.643C330.098 620.8 326.039 641.999 308.203 651.498C299.583 656.027 289.526 656.973 280.212 654.133C261.367 648.246 248.39 617.045 262.022 613.782C274.791 618.34 283.047 655.732 303.295 633.641C316.158 619.607 289.455 602.162 284.634 590.162C282.842 585.702 282.455 576.11 281.948 570.715Z" fill="white"/>
<path d="M282.012 526.835C286.441 527.352 297.476 529.196 300.994 526.738C315.109 526.179 317.991 535.404 317.813 547.969C317.627 561.096 313.439 566.184 302.289 570.43C296.417 570.052 287.838 570.373 281.948 570.715C271.212 569.742 268.712 564.822 267.509 554.251C265.965 540.675 267.019 528.942 282.012 526.835Z" fill="#FFD700"/>
<path d="M165.78 668.13C170.096 668.223 173.189 668.066 175.491 672.324C172.902 688.164 170.997 699.707 178.029 714.893L174.536 714.854L173.679 719.579C166.252 703.383 165.106 685.66 165.78 668.13Z" fill="#9E9963" fill-opacity="0.027451"/>
</svg>
